<svg width="938" height="425" viewBox="0 0 938 425" fill="none" xmlns="http://www.w3.org/2000/svg">
<rect width="938" height="425" fill="#F6F6F6"/>
<path d="M200 165.8C188 165.8 178.933 168.467 172.8 173.8C166.667 179.133 163.6 187 163.6 197.4V209.4H224.6V231.4H163.6V285H137.6V197.4C137.6 180.467 143 167.2 153.8 157.6C164.733 147.867 179.733 143 198.8 143C206.8 143 214.267 143.867 221.2 145.6C228.133 147.333 234.2 149.867 239.4 153.2L231.2 174.4C222.933 168.667 212.533 165.8 200 165.8ZM278.364 193.8C285.564 182.6 298.231 177 316.364 177V200.8C314.231 200.4 312.297 200.2 310.564 200.2C300.831 200.2 293.231 203.067 287.764 208.8C282.297 214.4 279.564 222.533 279.564 233.2V285H254.564V178.2H278.364V193.8ZM384.595 286.4C373.795 286.4 364.062 284.067 355.395 279.4C346.729 274.733 339.929 268.267 334.995 260C330.195 251.6 327.795 242.133 327.795 231.6C327.795 221.067 330.195 211.667 334.995 203.4C339.929 195.133 346.729 188.667 355.395 184C364.062 179.333 373.795 177 384.595 177C395.529 177 405.329 179.333 413.995 184C422.662 188.667 429.395 195.133 434.195 203.4C439.129 211.667 441.595 221.067 441.595 231.6C441.595 242.133 439.129 251.6 434.195 260C429.395 268.267 422.662 274.733 413.995 279.4C405.329 284.067 395.529 286.4 384.595 286.4ZM384.595 265C393.795 265 401.395 261.933 407.395 255.8C413.395 249.667 416.395 241.6 416.395 231.6C416.395 221.6 413.395 213.533 407.395 207.4C401.395 201.267 393.795 198.2 384.595 198.2C375.395 198.2 367.795 201.267 361.795 207.4C355.929 213.533 352.995 221.6 352.995 231.6C352.995 241.6 355.929 249.667 361.795 255.8C367.795 261.933 375.395 265 384.595 265ZM513.502 286.4C502.702 286.4 492.968 284.067 484.302 279.4C475.635 274.733 468.835 268.267 463.902 260C459.102 251.6 456.702 242.133 456.702 231.6C456.702 221.067 459.102 211.667 463.902 203.4C468.835 195.133 475.635 188.667 484.302 184C492.968 179.333 502.702 177 513.502 177C524.435 177 534.235 179.333 542.902 184C551.568 188.667 558.302 195.133 563.102 203.4C568.035 211.667 570.502 221.067 570.502 231.6C570.502 242.133 568.035 251.6 563.102 260C558.302 268.267 551.568 274.733 542.902 279.4C534.235 284.067 524.435 286.4 513.502 286.4ZM513.502 265C522.702 265 530.302 261.933 536.302 255.8C542.302 249.667 545.302 241.6 545.302 231.6C545.302 221.6 542.302 213.533 536.302 207.4C530.302 201.267 522.702 198.2 513.502 198.2C504.302 198.2 496.702 201.267 490.702 207.4C484.835 213.533 481.902 221.6 481.902 231.6C481.902 241.6 484.835 249.667 490.702 255.8C496.702 261.933 504.302 265 513.502 265ZM691.478 178.2L645.678 285H619.878L574.078 178.2H600.078L633.278 257.4L667.478 178.2H691.478ZM752.173 286.4C741.373 286.4 731.64 284.067 722.973 279.4C714.307 274.733 707.507 268.267 702.573 260C697.773 251.6 695.373 242.133 695.373 231.6C695.373 221.067 697.773 211.667 702.573 203.4C707.507 195.133 714.307 188.667 722.973 184C731.64 179.333 741.373 177 752.173 177C763.107 177 772.907 179.333 781.573 184C790.24 188.667 796.973 195.133 801.773 203.4C806.707 211.667 809.173 221.067 809.173 231.6C809.173 242.133 806.707 251.6 801.773 260C796.973 268.267 790.24 274.733 781.573 279.4C772.907 284.067 763.107 286.4 752.173 286.4ZM752.173 265C761.373 265 768.973 261.933 774.973 255.8C780.973 249.667 783.973 241.6 783.973 231.6C783.973 221.6 780.973 213.533 774.973 207.4C768.973 201.267 761.373 198.2 752.173 198.2C742.973 198.2 735.373 201.267 729.373 207.4C723.507 213.533 720.573 221.6 720.573 231.6C720.573 241.6 723.507 249.667 729.373 255.8C735.373 261.933 742.973 265 752.173 265Z" fill="#5C5C5C"/>
</svg>
